<svg xmlns="http://www.w3.org/2000/svg"  viewBox="0 0 50 50" width="50px" height="50px">

    <g id="home">
        <path d="M8 17V11H12V17H17V9H20L10 0L0 9H3V17H8Z" fill="currentColor"/>
    </g>
    <g id="profile">
        <path d="M8 8C10.21 8 12 6.21 12 4C12 1.79 10.21 0 8 0C5.79 0 4 1.79 4 4C4 6.21 5.79 8 8 8ZM8 10C5.33 10 0 11.34 0 14V16H16V14C16 11.34 10.67 10 8 10Z" fill="currentColor"/>
    </g>
    <g id="messages">
        <path d="M18 0H2C0.9 0 0.00999999 0.9 0.00999999 2L0 20L4 16H18C19.1 16 20 15.1 20 14V2C20 0.9 19.1 0 18 0ZM16 12H4V10H16V12ZM16 9H4V7H16V9ZM16 6H4V4H16V6Z" fill="currentColor"/>
    </g>
    <g id="notifications">
        <path d="M24.4091 18.5265C24.3866 18.5085 22.0016 16.6815 22.0433 11.7428C22.0658 8.89426 21.1298 6.36301 19.4029 4.61589C17.856 3.04877 15.7613 2.18251 13.5056 2.17126H13.491C11.2365 2.18251 9.14176 3.04876 7.59376 4.61701C5.86801 6.36414 4.92976 8.89426 4.95451 11.7428C4.99613 16.614 2.68201 18.4556 2.58976 18.5265C2.29726 18.7436 2.17801 19.1228 2.29163 19.4693C2.40638 19.8158 2.73038 20.0486 3.09263 20.0486H8.62763C8.74238 22.6474 10.8743 24.7286 13.4989 24.7286C16.1235 24.7286 18.2531 22.6474 18.3668 20.0486H23.904C24.2663 20.0486 24.5903 19.8169 24.7028 19.4704C24.8186 19.125 24.6994 18.7448 24.4069 18.5276L24.4091 18.5265ZM13.5 23.0378C11.8069 23.0378 10.4288 21.7136 10.3185 20.0475H16.6815C16.569 21.7125 15.1931 23.04 13.5 23.04V23.0378ZM4.92751 18.36C5.76001 17.0865 6.66901 14.9535 6.64201 11.727C6.62176 9.29701 7.36651 7.24726 8.79413 5.80164C10.0238 4.55626 11.6966 3.86664 13.5 3.85876C15.3034 3.86776 16.9729 4.55626 18.2025 5.80276C19.6313 7.24839 20.3771 9.29701 20.3569 11.7281C20.3299 14.9546 21.24 17.0888 22.0725 18.3611H4.92751V18.36Z" fill="currentColor"/>
    </g>
    <g id="settings">
        <path fill-rule="evenodd" clip-rule="evenodd" d="M20.4022 13.5801C20.7599 13.7701 21.0358 14.0701 21.23 14.3701C21.6081 14.9901 21.5775 15.7501 21.2096 16.4201L20.4942 17.6201C20.1161 18.2601 19.4109 18.6601 18.6853 18.6601C18.3277 18.6601 17.9291 18.5601 17.6021 18.3601C17.3364 18.1901 17.0298 18.1301 16.7027 18.1301C15.691 18.1301 14.8428 18.9601 14.8121 19.9501C14.8121 21.1001 13.8719 22.0001 12.6967 22.0001H11.3068C10.1213 22.0001 9.18113 21.1001 9.18113 19.9501C9.16069 18.9601 8.31247 18.1301 7.30073 18.1301C6.96348 18.1301 6.6569 18.1901 6.40141 18.3601C6.07438 18.5601 5.6656 18.6601 5.31813 18.6601C4.58232 18.6601 3.87717 18.2601 3.49905 17.6201L2.7939 16.4201C2.41577 15.7701 2.39533 14.9901 2.77346 14.3701C2.93697 14.0701 3.24356 13.7701 3.59102 13.5801C3.87717 13.4401 4.06112 13.2101 4.23486 12.9401C4.74584 12.0801 4.43925 10.9501 3.57059 10.4401C2.55885 9.8701 2.23182 8.6001 2.81434 7.6101L3.49905 6.4301C4.09178 5.4401 5.35901 5.0901 6.38097 5.6701C7.27007 6.1501 8.42488 5.8301 8.94608 4.9801C9.10959 4.7001 9.20157 4.4001 9.18113 4.1001C9.16069 3.7101 9.27311 3.3401 9.46728 3.0401C9.8454 2.4201 10.5301 2.0201 11.2761 2.0001H12.7171C13.4734 2.0001 14.1581 2.4201 14.5362 3.0401C14.7201 3.3401 14.8428 3.7101 14.8121 4.1001C14.7917 4.4001 14.8837 4.7001 15.0472 4.9801C15.5684 5.8301 16.7232 6.1501 17.6225 5.6701C18.6342 5.0901 19.9117 5.4401 20.4942 6.4301L21.1789 7.6101C21.7716 8.6001 21.4446 9.8701 20.4227 10.4401C19.554 10.9501 19.2474 12.0801 19.7686 12.9401C19.9321 13.2101 20.1161 13.4401 20.4022 13.5801ZM9.10959 12.0101C9.10959 13.5801 10.4075 14.8301 12.012 14.8301C13.6164 14.8301 14.8837 13.5801 14.8837 12.0101C14.8837 10.4401 13.6164 9.1801 12.012 9.1801C10.4075 9.1801 9.10959 10.4401 9.10959 12.0101Z" fill="currentColor"/>
    </g>
    <g id="location">
        <path fill-rule="evenodd" clip-rule="evenodd" d="M5 9C5 5.13 8.13 2 12 2C15.87 2 19 5.13 19 9C19 13.17 14.58 18.92 12.77 21.11C12.37 21.59 11.64 21.59 11.24 21.11C9.42 18.92 5 13.17 5 9ZM9.5 9C9.5 10.38 10.62 11.5 12 11.5C13.38 11.5 14.5 10.38 14.5 9C14.5 7.62 13.38 6.5 12 6.5C10.62 6.5 9.5 7.62 9.5 9Z" fill="currentColor"/>
    </g>
    <g id="phone">
        <path fill-rule="evenodd" clip-rule="evenodd" d="M19.23 15.26L16.69 14.97C16.08 14.9 15.48 15.11 15.05 15.54L13.21 17.38C10.38 15.94 8.06004 13.63 6.62004 10.79L8.47004 8.94001C8.90004 8.51001 9.11004 7.91001 9.04004 7.30001L8.75004 4.78001C8.63004 3.77001 7.78004 3.01001 6.76004 3.01001H5.03004C3.90004 3.01001 2.96004 3.95001 3.03004 5.08001C3.56004 13.62 10.39 20.44 18.92 20.97C20.05 21.04 20.99 20.1 20.99 18.97V17.24C21 16.23 20.24 15.38 19.23 15.26Z" fill="currentColor"/>
    </g>
    <g id="fax">
        <path fill-rule="evenodd" clip-rule="evenodd" d="M7 3H17C17.55 3 18 3.45 18 4V6C18 6.55 17.55 7 17 7H7C6.45 7 6 6.55 6 6V4C6 3.45 6.45 3 7 3ZM5 8H19C20.66 8 22 9.34 22 11V15C22 16.1 21.1 17 20 17H18V19C18 20.1 17.1 21 16 21H8C6.9 21 6 20.1 6 19V17H4C2.9 17 2 16.1 2 15V11C2 9.34 3.34 8 5 8ZM9 19H15C15.55 19 16 18.55 16 18V14H8V18C8 18.55 8.45 19 9 19ZM19 12C18.45 12 18 11.55 18 11C18 10.45 18.45 10 19 10C19.55 10 20 10.45 20 11C20 11.55 19.55 12 19 12Z" fill="currentColor"/>
    </g>
    <g id="facebook">
        <path d="M12.6144 21H3.99346C3.44463 21 3 20.5551 3 20.0065V3.99345C3 3.44469 3.4447 3 3.99346 3H20.0066C20.5552 3 21 3.44469 21 3.99345V20.0065C21 20.5552 20.5552 21 20.0066 21H15.4197V14.0294H17.7594L18.1098 11.3128H15.4197V9.57849C15.4197 8.79198 15.6381 8.256 16.766 8.256L18.2045 8.25537V5.82566C17.9557 5.79255 17.1018 5.71859 16.1083 5.71859C14.0343 5.71859 12.6144 6.98457 12.6144 9.30945V11.3128H10.2687V14.0294H12.6144V21Z" fill="currentColor"/>
    </g>
    <g id="twitter">
       <path d="M21 6.77573C20.3386 7.07692 19.6265 7.28061 18.8796 7.37161C19.6424 6.90358 20.2277 6.16143 20.5034 5.27736C19.7892 5.71073 19 6.026 18.1569 6.19502C17.4849 5.45937 16.5246 5 15.4617 5C13.4237 5 11.7702 6.69556 11.7702 8.78657C11.7702 9.08342 11.8019 9.37161 11.8653 9.64897C8.79609 9.49079 6.07554 7.98483 4.25304 5.69122C3.93502 6.25244 3.7533 6.90358 3.7533 7.59697C3.7533 8.91008 4.40518 10.0693 5.3962 10.7486C4.79186 10.7302 4.22134 10.558 3.72266 10.2763V10.3229C3.72266 12.1582 4.99577 13.6891 6.68621 14.0358C6.37665 14.1246 6.05018 14.169 5.71315 14.169C5.47544 14.169 5.243 14.1463 5.01796 14.1018C5.48811 15.6056 6.85103 16.701 8.46751 16.7302C7.20391 17.7465 5.61067 18.3521 3.88114 18.3521C3.5832 18.3521 3.28843 18.3348 3 18.3001C4.63444 19.3727 6.57633 20 8.66086 20C15.4543 20 19.168 14.2308 19.168 9.22644C19.168 9.06176 19.1648 8.89707 19.1585 8.73564C19.8801 8.20152 20.5066 7.53521 21 6.77573Z" fill="currentColor"/>
    </g>
    <g id="linkedin">
       <path fill-rule="evenodd" clip-rule="evenodd" d="M5.11877 7.77127H5.09337C3.82338 7.77127 3 6.94039 3 5.88717C3 4.81347 3.84772 4 5.14311 4C6.43744 4 7.2333 4.81142 7.2587 5.8841C7.2587 6.93731 6.43744 7.77127 5.11877 7.77127ZM21 20H17.0218V14.3754C17.0218 12.9031 16.3995 11.8981 15.031 11.8981C13.9844 11.8981 13.4023 12.5763 13.1313 13.2299C13.0419 13.4365 13.0435 13.7146 13.0452 14.0012V14.0012C13.0454 14.0401 13.0456 14.0791 13.0456 14.1182V20H9.10442C9.10442 20 9.15522 10.0365 9.10442 9.13082H13.0456V10.8367C13.2785 10.0908 14.5379 9.02632 16.5476 9.02632C19.041 9.02632 21 10.5897 21 13.9563V20ZM6.96237 9.13082H3.45402V20H6.96237V9.13082Z" fill="currentColor"/>
    </g>
    <g id="instagram">
       <path fill-rule="evenodd" clip-rule="evenodd" d="M12 3C9.55575 3 9.24926 3.01036 8.28931 3.05416C7.33137 3.09785 6.67712 3.25001 6.10466 3.47251C5.51283 3.70247 5.01092 4.01021 4.51055 4.51055C4.01021 5.01092 3.70247 5.51283 3.47251 6.10466C3.25001 6.67712 3.09785 7.33137 3.05416 8.28931C3.01036 9.24926 3 9.55575 3 12C3 14.4443 3.01036 14.7507 3.05416 15.7107C3.09785 16.6686 3.25001 17.3229 3.47251 17.8953C3.70247 18.4872 4.01021 18.9891 4.51055 19.4895C5.01092 19.9898 5.51283 20.2975 6.10466 20.5275C6.67712 20.75 7.33137 20.9021 8.28931 20.9458C9.24926 20.9896 9.55575 21 12 21C14.4443 21 14.7507 20.9896 15.7107 20.9458C16.6686 20.9021 17.3229 20.75 17.8953 20.5275C18.4872 20.2975 18.9891 19.9898 19.4895 19.4895C19.9898 18.9891 20.2975 18.4872 20.5275 17.8953C20.75 17.3229 20.9021 16.6686 20.9458 15.7107C20.9896 14.7507 21 14.4443 21 12C21 9.55575 20.9896 9.24926 20.9458 8.28931C20.9021 7.33137 20.75 6.67712 20.5275 6.10466C20.2975 5.51283 19.9898 5.01092 19.4895 4.51055C18.9891 4.01021 18.4872 3.70247 17.8953 3.47251C17.3229 3.25001 16.6686 3.09785 15.7107 3.05416C14.7507 3.01036 14.4443 3 12 3ZM12 4.62162C14.4031 4.62162 14.6878 4.6308 15.6368 4.6741C16.5143 4.71411 16.9908 4.86073 17.3079 4.98398C17.728 5.14725 18.0278 5.34227 18.3428 5.65723C18.6577 5.97215 18.8528 6.27196 19.016 6.69206C19.1393 7.00919 19.2859 7.48574 19.3259 8.36323C19.3692 9.31224 19.3784 9.5969 19.3784 12C19.3784 14.4031 19.3692 14.6878 19.3259 15.6368C19.2859 16.5143 19.1393 16.9908 19.016 17.3079C18.8528 17.728 18.6577 18.0278 18.3428 18.3428C18.0278 18.6577 17.728 18.8528 17.3079 19.016C16.9908 19.1393 16.5143 19.2859 15.6368 19.3259C14.6879 19.3692 14.4033 19.3784 12 19.3784C9.59672 19.3784 9.31213 19.3692 8.36323 19.3259C7.48574 19.2859 7.00919 19.1393 6.69206 19.016C6.27196 18.8528 5.97215 18.6577 5.65723 18.3428C5.34231 18.0278 5.14725 17.728 4.98398 17.3079C4.86073 16.9908 4.71411 16.5143 4.6741 15.6368C4.6308 14.6878 4.62162 14.4031 4.62162 12C4.62162 9.5969 4.6308 9.31224 4.6741 8.36323C4.71411 7.48574 4.86073 7.00919 4.98398 6.69206C5.14725 6.27196 5.34227 5.97215 5.65723 5.65723C5.97215 5.34227 6.27196 5.14725 6.69206 4.98398C7.00919 4.86073 7.48574 4.71411 8.36323 4.6741C9.31224 4.6308 9.5969 4.62162 12 4.62162ZM7.37838 12C7.37838 9.44753 9.44753 7.37838 12 7.37838C14.5525 7.37838 16.6216 9.44753 16.6216 12C16.6216 14.5525 14.5525 16.6216 12 16.6216C9.44753 16.6216 7.37838 14.5525 7.37838 12ZM12 15C10.3431 15 9 13.6569 9 12C9 10.3431 10.3431 9 12 9C13.6569 9 15 10.3431 15 12C15 13.6569 13.6569 15 12 15ZM16.8042 8.27577C17.4007 8.27577 17.8842 7.79226 17.8842 7.19579C17.8842 6.59931 17.4007 6.11577 16.8042 6.11577C16.2078 6.11577 15.7242 6.59931 15.7242 7.19579C15.7242 7.79226 16.2078 8.27577 16.8042 8.27577Z" fill="currentColor"/>
    </g>
    <g id="youtube">
       <path fill-rule="evenodd" clip-rule="evenodd" d="M20.1045 6.96979C20.6439 7.53063 20.82 8.80424 20.82 8.80424C20.82 8.80424 21 10.3002 21 11.7956V13.198C21 14.694 20.82 16.1894 20.82 16.1894C20.82 16.1894 20.6439 17.463 20.1045 18.0239C19.4878 18.6873 18.8039 18.7559 18.4174 18.7946C18.3749 18.7989 18.336 18.8028 18.3011 18.8071C15.7822 18.9942 12 19 12 19C12 19 7.32 18.9561 5.88 18.814C5.81177 18.8009 5.72907 18.7907 5.63541 18.7792C5.17928 18.723 4.46335 18.6348 3.89494 18.0239C3.3555 17.463 3.18 16.1894 3.18 16.1894C3.18 16.1894 3 14.694 3 13.198V11.7956C3 10.3002 3.18 8.80424 3.18 8.80424C3.18 8.80424 3.3555 7.53063 3.89494 6.96979C4.51305 6.30538 5.19754 6.23757 5.58411 6.19928C5.62602 6.19513 5.66443 6.19132 5.69887 6.18714C8.21775 6 11.9961 6 11.9961 6H12.0039C12.0039 6 15.7822 6 18.3011 6.18714C18.3356 6.19133 18.374 6.19514 18.4159 6.1993C18.8022 6.2376 19.487 6.30549 20.1045 6.96979ZM10.1409 9.70414L10.1415 14.8973L15.0043 12.3097L10.1409 9.70414Z" fill="currentColor"/>
    </g>
    <g id="rss">
       <path fill-rule="evenodd" clip-rule="evenodd" d="M21 21H17.5717C17.5717 12.9649 11.0352 6.42836 3.00019 6.42836V3C12.9252 3 21 11.0749 21 21ZM3.00019 18.4286C3.00019 17.0085 4.15154 15.8571 5.57159 15.8571C6.99165 15.8571 8.14299 17.0085 8.14299 18.4286C8.14299 19.8486 6.99165 21 5.57159 21C4.15154 21 3.00019 19.8486 3.00019 18.4286ZM11.5718 21H15.0001C15.0001 14.3831 9.61686 8.99979 3 8.99979V12.4288C7.72623 12.4288 11.5718 16.2737 11.5718 21Z" fill="currentColor"/>
    </g>
</svg>