<svg xmlns="http://www.w3.org/2000/svg"  viewBox="0 0 50 50" width="50px" height="50px">

    <g id="home">
        <path d="M8 17V11H12V17H17V9H20L10 0L0 9H3V17H8Z" fill="currentColor"/>
    </g>
    <g id="profile">
        <path d="M8 8C10.21 8 12 6.21 12 4C12 1.79 10.21 0 8 0C5.79 0 4 1.79 4 4C4 6.21 5.79 8 8 8ZM8 10C5.33 10 0 11.34 0 14V16H16V14C16 11.34 10.67 10 8 10Z" fill="currentColor"/>
    </g>
    <g id="messages">
        <path d="M18 0H2C0.9 0 0.00999999 0.9 0.00999999 2L0 20L4 16H18C19.1 16 20 15.1 20 14V2C20 0.9 19.1 0 18 0ZM16 12H4V10H16V12ZM16 9H4V7H16V9ZM16 6H4V4H16V6Z" fill="currentColor"/>
    </g>
    <g id="notifications">
        <path d="M24.4091 18.5265C24.3866 18.5085 22.0016 16.6815 22.0433 11.7428C22.0658 8.89426 21.1298 6.36301 19.4029 4.61589C17.856 3.04877 15.7613 2.18251 13.5056 2.17126H13.491C11.2365 2.18251 9.14176 3.04876 7.59376 4.61701C5.86801 6.36414 4.92976 8.89426 4.95451 11.7428C4.99613 16.614 2.68201 18.4556 2.58976 18.5265C2.29726 18.7436 2.17801 19.1228 2.29163 19.4693C2.40638 19.8158 2.73038 20.0486 3.09263 20.0486H8.62763C8.74238 22.6474 10.8743 24.7286 13.4989 24.7286C16.1235 24.7286 18.2531 22.6474 18.3668 20.0486H23.904C24.2663 20.0486 24.5903 19.8169 24.7028 19.4704C24.8186 19.125 24.6994 18.7448 24.4069 18.5276L24.4091 18.5265ZM13.5 23.0378C11.8069 23.0378 10.4288 21.7136 10.3185 20.0475H16.6815C16.569 21.7125 15.1931 23.04 13.5 23.04V23.0378ZM4.92751 18.36C5.76001 17.0865 6.66901 14.9535 6.64201 11.727C6.62176 9.29701 7.36651 7.24726 8.79413 5.80164C10.0238 4.55626 11.6966 3.86664 13.5 3.85876C15.3034 3.86776 16.9729 4.55626 18.2025 5.80276C19.6313 7.24839 20.3771 9.29701 20.3569 11.7281C20.3299 14.9546 21.24 17.0888 22.0725 18.3611H4.92751V18.36Z" fill="currentColor"/>
    </g>
    <g id="settings">
        <path fill-rule="evenodd" clip-rule="evenodd" d="M20.4022 13.5801C20.7599 13.7701 21.0358 14.0701 21.23 14.3701C21.6081 14.9901 21.5775 15.7501 21.2096 16.4201L20.4942 17.6201C20.1161 18.2601 19.4109 18.6601 18.6853 18.6601C18.3277 18.6601 17.9291 18.5601 17.6021 18.3601C17.3364 18.1901 17.0298 18.1301 16.7027 18.1301C15.691 18.1301 14.8428 18.9601 14.8121 19.9501C14.8121 21.1001 13.8719 22.0001 12.6967 22.0001H11.3068C10.1213 22.0001 9.18113 21.1001 9.18113 19.9501C9.16069 18.9601 8.31247 18.1301 7.30073 18.1301C6.96348 18.1301 6.6569 18.1901 6.40141 18.3601C6.07438 18.5601 5.6656 18.6601 5.31813 18.6601C4.58232 18.6601 3.87717 18.2601 3.49905 17.6201L2.7939 16.4201C2.41577 15.7701 2.39533 14.9901 2.77346 14.3701C2.93697 14.0701 3.24356 13.7701 3.59102 13.5801C3.87717 13.4401 4.06112 13.2101 4.23486 12.9401C4.74584 12.0801 4.43925 10.9501 3.57059 10.4401C2.55885 9.8701 2.23182 8.6001 2.81434 7.6101L3.49905 6.4301C4.09178 5.4401 5.35901 5.0901 6.38097 5.6701C7.27007 6.1501 8.42488 5.8301 8.94608 4.9801C9.10959 4.7001 9.20157 4.4001 9.18113 4.1001C9.16069 3.7101 9.27311 3.3401 9.46728 3.0401C9.8454 2.4201 10.5301 2.0201 11.2761 2.0001H12.7171C13.4734 2.0001 14.1581 2.4201 14.5362 3.0401C14.7201 3.3401 14.8428 3.7101 14.8121 4.1001C14.7917 4.4001 14.8837 4.7001 15.0472 4.9801C15.5684 5.8301 16.7232 6.1501 17.6225 5.6701C18.6342 5.0901 19.9117 5.4401 20.4942 6.4301L21.1789 7.6101C21.7716 8.6001 21.4446 9.8701 20.4227 10.4401C19.554 10.9501 19.2474 12.0801 19.7686 12.9401C19.9321 13.2101 20.1161 13.4401 20.4022 13.5801ZM9.10959 12.0101C9.10959 13.5801 10.4075 14.8301 12.012 14.8301C13.6164 14.8301 14.8837 13.5801 14.8837 12.0101C14.8837 10.4401 13.6164 9.1801 12.012 9.1801C10.4075 9.1801 9.10959 10.4401 9.10959 12.0101Z" fill="currentColor"/>
    </g>
</svg>