<svg xmlns="http://www.w3.org/2000/svg" viewBox="0 0 50 50" width="50px" height="50px">

  <g id="home">
    <path d="M8 17V11H12V17H17V9H20L10 0L0 9H3V17H8Z" fill="currentColor"/>
  </g>
  <g id="profile">
    <path d="M8 8C10.21 8 12 6.21 12 4C12 1.79 10.21 0 8 0C5.79 0 4 1.79 4 4C4 6.21 5.79 8 8 8ZM8 10C5.33 10 0 11.34 0 14V16H16V14C16 11.34 10.67 10 8 10Z" fill="currentColor"/>
  </g>
  <g id="messages">
    <path d="M18 0H2C0.9 0 0.00999999 0.9 0.00999999 2L0 20L4 16H18C19.1 16 20 15.1 20 14V2C20 0.9 19.1 0 18 0ZM16 12H4V10H16V12ZM16 9H4V7H16V9ZM16 6H4V4H16V6Z" fill="currentColor"/>
  </g>
  <g id="notifications">
    <path d="M24.4091 18.5265C24.3866 18.5085 22.0016 16.6815 22.0433 11.7428C22.0658 8.89426 21.1298 6.36301 19.4029 4.61589C17.856 3.04877 15.7613 2.18251 13.5056 2.17126H13.491C11.2365 2.18251 9.14176 3.04876 7.59376 4.61701C5.86801 6.36414 4.92976 8.89426 4.95451 11.7428C4.99613 16.614 2.68201 18.4556 2.58976 18.5265C2.29726 18.7436 2.17801 19.1228 2.29163 19.4693C2.40638 19.8158 2.73038 20.0486 3.09263 20.0486H8.62763C8.74238 22.6474 10.8743 24.7286 13.4989 24.7286C16.1235 24.7286 18.2531 22.6474 18.3668 20.0486H23.904C24.2663 20.0486 24.5903 19.8169 24.7028 19.4704C24.8186 19.125 24.6994 18.7448 24.4069 18.5276L24.4091 18.5265ZM13.5 23.0378C11.8069 23.0378 10.4288 21.7136 10.3185 20.0475H16.6815C16.569 21.7125 15.1931 23.04 13.5 23.04V23.0378ZM4.92751 18.36C5.76001 17.0865 6.66901 14.9535 6.64201 11.727C6.62176 9.29701 7.36651 7.24726 8.79413 5.80164C10.0238 4.55626 11.6966 3.86664 13.5 3.85876C15.3034 3.86776 16.9729 4.55626 18.2025 5.80276C19.6313 7.24839 20.3771 9.29701 20.3569 11.7281C20.3299 14.9546 21.24 17.0888 22.0725 18.3611H4.92751V18.36Z" fill="currentColor"/>
  </g>
  <g id="settings">
    <path fill-rule="evenodd" clip-rule="evenodd" d="M20.4022 13.5801C20.7599 13.7701 21.0358 14.0701 21.23 14.3701C21.6081 14.9901 21.5775 15.7501 21.2096 16.4201L20.4942 17.6201C20.1161 18.2601 19.4109 18.6601 18.6853 18.6601C18.3277 18.6601 17.9291 18.5601 17.6021 18.3601C17.3364 18.1901 17.0298 18.1301 16.7027 18.1301C15.691 18.1301 14.8428 18.9601 14.8121 19.9501C14.8121 21.1001 13.8719 22.0001 12.6967 22.0001H11.3068C10.1213 22.0001 9.18113 21.1001 9.18113 19.9501C9.16069 18.9601 8.31247 18.1301 7.30073 18.1301C6.96348 18.1301 6.6569 18.1901 6.40141 18.3601C6.07438 18.5601 5.6656 18.6601 5.31813 18.6601C4.58232 18.6601 3.87717 18.2601 3.49905 17.6201L2.7939 16.4201C2.41577 15.7701 2.39533 14.9901 2.77346 14.3701C2.93697 14.0701 3.24356 13.7701 3.59102 13.5801C3.87717 13.4401 4.06112 13.2101 4.23486 12.9401C4.74584 12.0801 4.43925 10.9501 3.57059 10.4401C2.55885 9.8701 2.23182 8.6001 2.81434 7.6101L3.49905 6.4301C4.09178 5.4401 5.35901 5.0901 6.38097 5.6701C7.27007 6.1501 8.42488 5.8301 8.94608 4.9801C9.10959 4.7001 9.20157 4.4001 9.18113 4.1001C9.16069 3.7101 9.27311 3.3401 9.46728 3.0401C9.8454 2.4201 10.5301 2.0201 11.2761 2.0001H12.7171C13.4734 2.0001 14.1581 2.4201 14.5362 3.0401C14.7201 3.3401 14.8428 3.7101 14.8121 4.1001C14.7917 4.4001 14.8837 4.7001 15.0472 4.9801C15.5684 5.8301 16.7232 6.1501 17.6225 5.6701C18.6342 5.0901 19.9117 5.4401 20.4942 6.4301L21.1789 7.6101C21.7716 8.6001 21.4446 9.8701 20.4227 10.4401C19.554 10.9501 19.2474 12.0801 19.7686 12.9401C19.9321 13.2101 20.1161 13.4401 20.4022 13.5801ZM9.10959 12.0101C9.10959 13.5801 10.4075 14.8301 12.012 14.8301C13.6164 14.8301 14.8837 13.5801 14.8837 12.0101C14.8837 10.4401 13.6164 9.1801 12.012 9.1801C10.4075 9.1801 9.10959 10.4401 9.10959 12.0101Z" fill="currentColor"/>
  </g>
  <g id="location">
    <path fill-rule="evenodd" clip-rule="evenodd" d="M5 9C5 5.13 8.13 2 12 2C15.87 2 19 5.13 19 9C19 13.17 14.58 18.92 12.77 21.11C12.37 21.59 11.64 21.59 11.24 21.11C9.42 18.92 5 13.17 5 9ZM9.5 9C9.5 10.38 10.62 11.5 12 11.5C13.38 11.5 14.5 10.38 14.5 9C14.5 7.62 13.38 6.5 12 6.5C10.62 6.5 9.5 7.62 9.5 9Z" fill="currentColor"/>
  </g>
  <g id="phone">
    <path fill-rule="evenodd" clip-rule="evenodd" d="M19.23 15.26L16.69 14.97C16.08 14.9 15.48 15.11 15.05 15.54L13.21 17.38C10.38 15.94 8.06004 13.63 6.62004 10.79L8.47004 8.94001C8.90004 8.51001 9.11004 7.91001 9.04004 7.30001L8.75004 4.78001C8.63004 3.77001 7.78004 3.01001 6.76004 3.01001H5.03004C3.90004 3.01001 2.96004 3.95001 3.03004 5.08001C3.56004 13.62 10.39 20.44 18.92 20.97C20.05 21.04 20.99 20.1 20.99 18.97V17.24C21 16.23 20.24 15.38 19.23 15.26Z" fill="currentColor"/>
  </g>
  <g id="fax">
    <path fill-rule="evenodd" clip-rule="evenodd" d="M7 3H17C17.55 3 18 3.45 18 4V6C18 6.55 17.55 7 17 7H7C6.45 7 6 6.55 6 6V4C6 3.45 6.45 3 7 3ZM5 8H19C20.66 8 22 9.34 22 11V15C22 16.1 21.1 17 20 17H18V19C18 20.1 17.1 21 16 21H8C6.9 21 6 20.1 6 19V17H4C2.9 17 2 16.1 2 15V11C2 9.34 3.34 8 5 8ZM9 19H15C15.55 19 16 18.55 16 18V14H8V18C8 18.55 8.45 19 9 19ZM19 12C18.45 12 18 11.55 18 11C18 10.45 18.45 10 19 10C19.55 10 20 10.45 20 11C20 11.55 19.55 12 19 12Z" fill="currentColor"/>
  </g>
  <g id="facebook">
    <path d="M12.6144 21H3.99346C3.44463 21 3 20.5551 3 20.0065V3.99345C3 3.44469 3.4447 3 3.99346 3H20.0066C20.5552 3 21 3.44469 21 3.99345V20.0065C21 20.5552 20.5552 21 20.0066 21H15.4197V14.0294H17.7594L18.1098 11.3128H15.4197V9.57849C15.4197 8.79198 15.6381 8.256 16.766 8.256L18.2045 8.25537V5.82566C17.9557 5.79255 17.1018 5.71859 16.1083 5.71859C14.0343 5.71859 12.6144 6.98457 12.6144 9.30945V11.3128H10.2687V14.0294H12.6144V21Z" fill="currentColor"/>
  </g>
  <g id="twitter">
    <path d="M21 6.77573C20.3386 7.07692 19.6265 7.28061 18.8796 7.37161C19.6424 6.90358 20.2277 6.16143 20.5034 5.27736C19.7892 5.71073 19 6.026 18.1569 6.19502C17.4849 5.45937 16.5246 5 15.4617 5C13.4237 5 11.7702 6.69556 11.7702 8.78657C11.7702 9.08342 11.8019 9.37161 11.8653 9.64897C8.79609 9.49079 6.07554 7.98483 4.25304 5.69122C3.93502 6.25244 3.7533 6.90358 3.7533 7.59697C3.7533 8.91008 4.40518 10.0693 5.3962 10.7486C4.79186 10.7302 4.22134 10.558 3.72266 10.2763V10.3229C3.72266 12.1582 4.99577 13.6891 6.68621 14.0358C6.37665 14.1246 6.05018 14.169 5.71315 14.169C5.47544 14.169 5.243 14.1463 5.01796 14.1018C5.48811 15.6056 6.85103 16.701 8.46751 16.7302C7.20391 17.7465 5.61067 18.3521 3.88114 18.3521C3.5832 18.3521 3.28843 18.3348 3 18.3001C4.63444 19.3727 6.57633 20 8.66086 20C15.4543 20 19.168 14.2308 19.168 9.22644C19.168 9.06176 19.1648 8.89707 19.1585 8.73564C19.8801 8.20152 20.5066 7.53521 21 6.77573Z" fill="currentColor"/>
  </g>
  <g id="linkedin">
    <path fill-rule="evenodd" clip-rule="evenodd" d="M5.11877 7.77127H5.09337C3.82338 7.77127 3 6.94039 3 5.88717C3 4.81347 3.84772 4 5.14311 4C6.43744 4 7.2333 4.81142 7.2587 5.8841C7.2587 6.93731 6.43744 7.77127 5.11877 7.77127ZM21 20H17.0218V14.3754C17.0218 12.9031 16.3995 11.8981 15.031 11.8981C13.9844 11.8981 13.4023 12.5763 13.1313 13.2299C13.0419 13.4365 13.0435 13.7146 13.0452 14.0012V14.0012C13.0454 14.0401 13.0456 14.0791 13.0456 14.1182V20H9.10442C9.10442 20 9.15522 10.0365 9.10442 9.13082H13.0456V10.8367C13.2785 10.0908 14.5379 9.02632 16.5476 9.02632C19.041 9.02632 21 10.5897 21 13.9563V20ZM6.96237 9.13082H3.45402V20H6.96237V9.13082Z" fill="currentColor"/>
  </g>
  <g id="instagram">
    <path fill-rule="evenodd" clip-rule="evenodd" d="M12 3C9.55575 3 9.24926 3.01036 8.28931 3.05416C7.33137 3.09785 6.67712 3.25001 6.10466 3.47251C5.51283 3.70247 5.01092 4.01021 4.51055 4.51055C4.01021 5.01092 3.70247 5.51283 3.47251 6.10466C3.25001 6.67712 3.09785 7.33137 3.05416 8.28931C3.01036 9.24926 3 9.55575 3 12C3 14.4443 3.01036 14.7507 3.05416 15.7107C3.09785 16.6686 3.25001 17.3229 3.47251 17.8953C3.70247 18.4872 4.01021 18.9891 4.51055 19.4895C5.01092 19.9898 5.51283 20.2975 6.10466 20.5275C6.67712 20.75 7.33137 20.9021 8.28931 20.9458C9.24926 20.9896 9.55575 21 12 21C14.4443 21 14.7507 20.9896 15.7107 20.9458C16.6686 20.9021 17.3229 20.75 17.8953 20.5275C18.4872 20.2975 18.9891 19.9898 19.4895 19.4895C19.9898 18.9891 20.2975 18.4872 20.5275 17.8953C20.75 17.3229 20.9021 16.6686 20.9458 15.7107C20.9896 14.7507 21 14.4443 21 12C21 9.55575 20.9896 9.24926 20.9458 8.28931C20.9021 7.33137 20.75 6.67712 20.5275 6.10466C20.2975 5.51283 19.9898 5.01092 19.4895 4.51055C18.9891 4.01021 18.4872 3.70247 17.8953 3.47251C17.3229 3.25001 16.6686 3.09785 15.7107 3.05416C14.7507 3.01036 14.4443 3 12 3ZM12 4.62162C14.4031 4.62162 14.6878 4.6308 15.6368 4.6741C16.5143 4.71411 16.9908 4.86073 17.3079 4.98398C17.728 5.14725 18.0278 5.34227 18.3428 5.65723C18.6577 5.97215 18.8528 6.27196 19.016 6.69206C19.1393 7.00919 19.2859 7.48574 19.3259 8.36323C19.3692 9.31224 19.3784 9.5969 19.3784 12C19.3784 14.4031 19.3692 14.6878 19.3259 15.6368C19.2859 16.5143 19.1393 16.9908 19.016 17.3079C18.8528 17.728 18.6577 18.0278 18.3428 18.3428C18.0278 18.6577 17.728 18.8528 17.3079 19.016C16.9908 19.1393 16.5143 19.2859 15.6368 19.3259C14.6879 19.3692 14.4033 19.3784 12 19.3784C9.59672 19.3784 9.31213 19.3692 8.36323 19.3259C7.48574 19.2859 7.00919 19.1393 6.69206 19.016C6.27196 18.8528 5.97215 18.6577 5.65723 18.3428C5.34231 18.0278 5.14725 17.728 4.98398 17.3079C4.86073 16.9908 4.71411 16.5143 4.6741 15.6368C4.6308 14.6878 4.62162 14.4031 4.62162 12C4.62162 9.5969 4.6308 9.31224 4.6741 8.36323C4.71411 7.48574 4.86073 7.00919 4.98398 6.69206C5.14725 6.27196 5.34227 5.97215 5.65723 5.65723C5.97215 5.34227 6.27196 5.14725 6.69206 4.98398C7.00919 4.86073 7.48574 4.71411 8.36323 4.6741C9.31224 4.6308 9.5969 4.62162 12 4.62162ZM7.37838 12C7.37838 9.44753 9.44753 7.37838 12 7.37838C14.5525 7.37838 16.6216 9.44753 16.6216 12C16.6216 14.5525 14.5525 16.6216 12 16.6216C9.44753 16.6216 7.37838 14.5525 7.37838 12ZM12 15C10.3431 15 9 13.6569 9 12C9 10.3431 10.3431 9 12 9C13.6569 9 15 10.3431 15 12C15 13.6569 13.6569 15 12 15ZM16.8042 8.27577C17.4007 8.27577 17.8842 7.79226 17.8842 7.19579C17.8842 6.59931 17.4007 6.11577 16.8042 6.11577C16.2078 6.11577 15.7242 6.59931 15.7242 7.19579C15.7242 7.79226 16.2078 8.27577 16.8042 8.27577Z" fill="currentColor"/>
  </g>
  <g id="youtube">
    <path fill-rule="evenodd" clip-rule="evenodd" d="M20.1045 6.96979C20.6439 7.53063 20.82 8.80424 20.82 8.80424C20.82 8.80424 21 10.3002 21 11.7956V13.198C21 14.694 20.82 16.1894 20.82 16.1894C20.82 16.1894 20.6439 17.463 20.1045 18.0239C19.4878 18.6873 18.8039 18.7559 18.4174 18.7946C18.3749 18.7989 18.336 18.8028 18.3011 18.8071C15.7822 18.9942 12 19 12 19C12 19 7.32 18.9561 5.88 18.814C5.81177 18.8009 5.72907 18.7907 5.63541 18.7792C5.17928 18.723 4.46335 18.6348 3.89494 18.0239C3.3555 17.463 3.18 16.1894 3.18 16.1894C3.18 16.1894 3 14.694 3 13.198V11.7956C3 10.3002 3.18 8.80424 3.18 8.80424C3.18 8.80424 3.3555 7.53063 3.89494 6.96979C4.51305 6.30538 5.19754 6.23757 5.58411 6.19928C5.62602 6.19513 5.66443 6.19132 5.69887 6.18714C8.21775 6 11.9961 6 11.9961 6H12.0039C12.0039 6 15.7822 6 18.3011 6.18714C18.3356 6.19133 18.374 6.19514 18.4159 6.1993C18.8022 6.2376 19.487 6.30549 20.1045 6.96979ZM10.1409 9.70414L10.1415 14.8973L15.0043 12.3097L10.1409 9.70414Z" fill="currentColor"/>
  </g>
  <g id="github" fill="currentColor">
    <path d="M64 5.103c-33.347 0-60.388 27.035-60.388 60.388 0 26.682 17.303 49.317 41.297 57.303 3.017.56 4.125-1.31 4.125-2.905 0-1.44-.056-6.197-.082-11.243-16.8 3.653-20.345-7.125-20.345-7.125-2.747-6.98-6.705-8.836-6.705-8.836-5.48-3.748.413-3.67.413-3.67 6.063.425 9.257 6.223 9.257 6.223 5.386 9.23 14.127 6.562 17.573 5.02.542-3.903 2.107-6.568 3.834-8.076-13.413-1.525-27.514-6.704-27.514-29.843 0-6.593 2.36-11.98 6.223-16.21-.628-1.52-2.695-7.662.584-15.98 0 0 5.07-1.623 16.61 6.19C53.7 35 58.867 34.327 64 34.304c5.13.023 10.3.694 15.127 2.033 11.526-7.813 16.59-6.19 16.59-6.19 3.287 8.317 1.22 14.46.593 15.98 3.872 4.23 6.215 9.617 6.215 16.21 0 23.194-14.127 28.3-27.574 29.796 2.167 1.874 4.097 5.55 4.097 11.183 0 8.08-.07 14.583-.07 16.572 0 1.607 1.088 3.49 4.148 2.897 23.98-7.994 41.263-30.622 41.263-57.294C124.388 32.14 97.35 5.104 64 5.104z"/>
    <path d="M26.484 91.806c-.133.3-.605.39-1.035.185-.44-.196-.685-.605-.543-.906.13-.31.603-.395 1.04-.188.44.197.69.61.537.91zm2.446 2.729c-.287.267-.85.143-1.232-.28-.396-.42-.47-.983-.177-1.254.298-.266.844-.14 1.24.28.394.426.472.984.17 1.255zM31.312 98.012c-.37.258-.976.017-1.35-.52-.37-.538-.37-1.183.01-1.44.373-.258.97-.025 1.35.507.368.545.368 1.19-.01 1.452zm3.261 3.361c-.33.365-1.036.267-1.552-.23-.527-.487-.674-1.18-.343-1.544.336-.366 1.045-.264 1.564.23.527.486.686 1.18.333 1.543zm4.5 1.951c-.147.473-.825.688-1.51.486-.683-.207-1.13-.76-.99-1.238.14-.477.823-.7 1.512-.485.683.206 1.13.756.988 1.237zm4.943.361c.017.498-.563.91-1.28.92-.723.017-1.308-.387-1.315-.877 0-.503.568-.91 1.29-.924.717-.013 1.306.387 1.306.88zm4.598-.782c.086.485-.413.984-1.126 1.117-.7.13-1.35-.172-1.44-.653-.086-.498.422-.997 1.122-1.126.714-.123 1.354.17 1.444.663zm0 0"/>
  </g>
  <g id="vk">
    <path d="M25.217 22.402h-2.179c-0.825 0-1.080-0.656-2.562-2.158-1.291-1.25-1.862-1.418-2.179-1.418-0.445 0-0.572 0.127-0.572 0.741v1.968c0 0.53-0.169 0.847-1.566 0.847-2.818-0.189-5.24-1.726-6.646-3.966l-0.021-0.035c-1.632-2.027-2.835-4.47-3.43-7.142l-0.022-0.117c0-0.317 0.127-0.614 0.741-0.614h2.179c0.55 0 0.762 0.254 0.975 0.846 1.078 3.112 2.878 5.842 3.619 5.842 0.275 0 0.402-0.127 0.402-0.825v-3.219c-0.085-1.482-0.868-1.608-0.868-2.137 0.009-0.283 0.241-0.509 0.525-0.509 0.009 0 0.017 0 0.026 0.001l-0.001-0h3.429c0.466 0 0.635 0.254 0.635 0.804v4.34c0 0.465 0.212 0.635 0.339 0.635 0.275 0 0.509-0.17 1.016-0.677 1.054-1.287 1.955-2.759 2.642-4.346l0.046-0.12c0.145-0.363 0.493-0.615 0.9-0.615 0.019 0 0.037 0.001 0.056 0.002l-0.003-0h2.179c0.656 0 0.805 0.337 0.656 0.804-0.874 1.925-1.856 3.579-2.994 5.111l0.052-0.074c-0.232 0.381-0.317 0.55 0 0.975 0.232 0.317 0.995 0.973 1.503 1.566 0.735 0.727 1.351 1.573 1.816 2.507l0.025 0.055c0.212 0.612-0.106 0.93-0.72 0.93zM20.604 1.004h-9.207c-8.403 0-10.392 1.989-10.392 10.392v9.207c0 8.403 1.989 10.392 10.392 10.392h9.207c8.403 0 10.392-1.989 10.392-10.392v-9.207c0-8.403-2.011-10.392-10.392-10.392z" fill="currentColor"/>
  </g>
  <g id="rss">
    <path fill-rule="evenodd" clip-rule="evenodd" d="M21 21H17.5717C17.5717 12.9649 11.0352 6.42836 3.00019 6.42836V3C12.9252 3 21 11.0749 21 21ZM3.00019 18.4286C3.00019 17.0085 4.15154 15.8571 5.57159 15.8571C6.99165 15.8571 8.14299 17.0085 8.14299 18.4286C8.14299 19.8486 6.99165 21 5.57159 21C4.15154 21 3.00019 19.8486 3.00019 18.4286ZM11.5718 21H15.0001C15.0001 14.3831 9.61686 8.99979 3 8.99979V12.4288C7.72623 12.4288 11.5718 16.2737 11.5718 21Z" fill="currentColor"/>
  </g>
  <g id="comments">
    <path d="M23.3334 2.33331H4.66671C3.38337 2.33331 2.33337 3.38331 2.33337 4.66665V25.6666L7.00004 21H23.3334C24.6167 21 25.6667 19.95 25.6667 18.6666V4.66665C25.6667 3.38331 24.6167 2.33331 23.3334 2.33331ZM23.3334 18.6666H7.00004L4.66671 21V4.66665H23.3334V18.6666Z" fill="currentColor"/>
  </g>
  <g id="likes">
    <path d="M19.25 3.5C17.22 3.5 15.2717 4.445 14 5.93833C12.7284 4.445 10.78 3.5 8.75004 3.5C5.15671 3.5 2.33337 6.32333 2.33337 9.91667C2.33337 14.3267 6.30004 17.92 12.3084 23.38L14 24.9083L15.6917 23.3683C21.7 17.92 25.6667 14.3267 25.6667 9.91667C25.6667 6.32333 22.8434 3.5 19.25 3.5ZM14.1167 21.6417L14 21.7583L13.8834 21.6417C8.33004 16.6133 4.66671 13.2883 4.66671 9.91667C4.66671 7.58333 6.41671 5.83333 8.75004 5.83333C10.5467 5.83333 12.2967 6.98833 12.915 8.58667H15.0967C15.7034 6.98833 17.4534 5.83333 19.25 5.83333C21.5834 5.83333 23.3334 7.58333 23.3334 9.91667C23.3334 13.2883 19.67 16.6133 14.1167 21.6417Z" fill="currentColor"/>
  </g>
  <g id="leftArrow">
    <polygon style="fill:currentColor;" points="12,18 6,18 6,22 0,16 6,10 6,14 12,14"/>
  </g>
  <g id="rightArrow">
    <polygon style="fill:currentColor;" points="20,14 26,14 26,10 32,16 26,22 26,18 20,18"/>
  </g>
  <g id="error">
    <path fill-rule="evenodd" clip-rule="evenodd" d="M12 22c5.523 0 10-4.477 10-10S17.523 2 12 2 2 6.477 2 12s4.477 10 10 10zm-1.5-5.009c0-.867.659-1.491 1.491-1.491.85 0 1.509.624 1.509 1.491 0 .867-.659 1.509-1.509 1.509-.832 0-1.491-.642-1.491-1.509zM11.172 6a.5.5 0 0 0-.499.522l.306 7a.5.5 0 0 0 .5.478h1.043a.5.5 0 0 0 .5-.478l.305-7a.5.5 0 0 0-.5-.522h-1.655z" fill="currentColor"/>
  </g>
  <g id="success">
    <path fill="currentColor" d="M512 64a448 448 0 1 1 0 896 448 448 0 0 1 0-896zm-55.808 536.384-99.52-99.584a38.4 38.4 0 1 0-54.336 54.336l126.72 126.72a38.272 38.272 0 0 0 54.336 0l262.4-262.464a38.4 38.4 0 1 0-54.272-54.336L456.192 600.384z"/>
  </g>
  <g id="info">
    <path d="M12 22C6.477 22 2 17.523 2 12S6.477 2 12 2s10 4.477 10 10-4.477 10-10 10zm-.696-3.534c.63 0 1.332-.288 2.196-1.458l.911-1.22a.334.334 0 0 0-.074-.472.38.38 0 0 0-.505.06l-1.475 1.679a.241.241 0 0 1-.279.061.211.211 0 0 1-.12-.244l1.858-7.446a.499.499 0 0 0-.575-.613l-3.35.613a.35.35 0 0 0-.276.258l-.086.334a.25.25 0 0 0 .243.312h1.73l-1.476 5.922c-.054.234-.144.63-.144.918 0 .666.396 1.296 1.422 1.296zm1.83-10.536c.702 0 1.242-.414 1.386-1.044.036-.144.054-.306.054-.414 0-.504-.396-.972-1.134-.972-.702 0-1.242.414-1.386 1.044a1.868 1.868 0 0 0-.054.414c0 .504.396.972 1.134.972z" fill="currentColor"/>
  </g>
  <g id="avatarDefault">
    <path fill="currentColor" d="M628.736 528.896A416 416 0 0 1 928 928H96a415.872 415.872 0 0 1 299.264-399.104L512 704l116.736-175.104zM720 304a208 208 0 1 1-416 0 208 208 0 0 1 416 0z"/>
  </g>
  <g id="cross">
    <path d="M16 8L8 16M8.00001 8L16 16M21 12C21 16.9706 16.9706 21 12 21C7.02944 21 3 16.9706 3 12C3 7.02944 7.02944 3 12 3C16.9706 3 21 7.02944 21 12Z" stroke="currentColor" stroke-width="1.5" stroke-linecap="round" stroke-linejoin="round" fill="none"/>
  </g>
  <g id="logo">
    <path d="M296.55 232.086c-4.42 0-8.076-3.578-8.076-7.998s3.498-7.998 7.904-7.998h0.172c4.406 0 7.998 3.578 7.998 7.998s-3.592 7.998-7.998 7.998zM328.54 232.086c-4.42 0-8.074-3.578-8.074-7.998s3.498-7.998 7.904-7.998h0.17c4.406 0 7.998 3.578 7.998 7.998s-3.592 7.998-7.998 7.998zM936.356 232.086c-4.422 0-8.078-3.578-8.078-7.998s3.5-7.998 7.906-7.998h0.172c4.402 0 7.996 3.578 7.996 7.998s-3.594 7.998-7.996 7.998zM968.344 232.086c-4.418 0-8.074-3.578-8.074-7.998s3.5-7.998 7.902-7.998h0.172c4.406 0 8 3.578 8 7.998s-3.594 7.998-8 7.998zM248.082 504.002H56.14a7.994 7.994 0 0 1-7.998-7.998v-191.94a7.994 7.994 0 0 1 7.998-7.998h191.942a7.994 7.994 0 0 1 7.998 7.998v191.94a7.994 7.994 0 0 1-7.998 7.998z m-183.944-15.994h175.946V312.06H64.138v175.948zM40.628 184.1c-4.42 0-8.076-3.576-8.076-7.996 0-4.422 3.498-7.998 7.904-7.998h0.172a8.002 8.002 0 0 1 7.998 7.998 8 8 0 0 1-7.998 7.996zM72.62 184.1c-4.42 0-8.076-3.576-8.076-7.996 0-4.422 3.498-7.998 7.904-7.998h0.172a8.002 8.002 0 0 1 7.998 7.998 8.004 8.004 0 0 1-7.998 7.996zM104.61 184.1c-4.42 0-8.076-3.576-8.076-7.996 0-4.422 3.498-7.998 7.904-7.998h0.172a8.002 8.002 0 0 1 7.998 7.998 8.004 8.004 0 0 1-7.998 7.996z" fill="currentColor" />
    <path d="M1015.848 200.096H8.156a7.994 7.994 0 0 1-7.998-7.998v-15.994c0-13.23 10.762-23.994 23.992-23.994h975.702c13.23 0 23.992 10.764 23.992 23.994v15.994a7.994 7.994 0 0 1-7.996 7.998zM16.152 184.1h991.696v-7.996c0-4.344-3.656-7.998-7.996-7.998H24.15a8.014 8.014 0 0 0-7.998 7.998v7.996z" fill="currentColor" />
    <path d="M1015.848 871.89H8.156a7.994 7.994 0 0 1-7.998-7.998V192.098a7.994 7.994 0 0 1 7.998-7.998h1007.692a7.994 7.994 0 0 1 7.996 7.998v671.794a7.994 7.994 0 0 1-7.996 7.998zM16.152 855.894h991.696V200.096H16.152v655.798z" fill="currentColor" />
    <path d="M152.094 456.018c-23.914 0-55.966-33.646-55.966-68.058 0-34.144 24.054-59.902 55.966-59.902 31.928 0 55.998 25.758 55.998 59.902 0 34.412-32.068 68.058-55.998 68.058z m0-111.968c-23.164 0-39.972 18.462-39.972 43.908 0 27.43 27.148 52.062 39.972 52.062 13.168 0 40.004-24.102 40.004-52.062 0-25.444-16.822-43.908-40.004-43.908z" fill="currentColor" />
    <path d="M248.096 472.012a6.96 6.96 0 0 1-1.376-0.124c-70.62-12.23-70.62-17.12-70.62-23.868a7.994 7.994 0 0 1 14.136-5.122c6.608 2.998 35.13 9.058 59.202 13.246a7.972 7.972 0 0 1 6.514 9.23 7.99 7.99 0 0 1-7.856 6.638z" fill="currentColor" />
    <path d="M184.1 456.018a7.994 7.994 0 0 1-7.998-7.998v-19.65c0-4.42 3.578-7.998 7.998-7.998s7.998 3.578 7.998 7.998v19.65a7.994 7.994 0 0 1-7.998 7.998zM56.124 472.012a7.992 7.992 0 0 1-7.856-6.638 7.972 7.972 0 0 1 6.512-9.23c24.072-4.188 52.594-10.264 59.202-13.246a7.998 7.998 0 0 1 14.136 5.122c0 6.748 0 11.636-70.62 23.868-0.452 0.092-0.92 0.124-1.374 0.124z" fill="currentColor" />
    <path d="M120.12 456.018a7.994 7.994 0 0 1-7.998-7.998v-19.65a7.994 7.994 0 0 1 7.998-7.998 7.994 7.994 0 0 1 7.998 7.998v19.65a7.994 7.994 0 0 1-7.998 7.998zM248.082 695.944H56.14a7.994 7.994 0 0 1-7.998-7.998v-191.942a7.992 7.992 0 0 1 7.998-7.996h191.942a7.992 7.992 0 0 1 7.998 7.996v191.942a7.994 7.994 0 0 1-7.998 7.998z m-183.944-15.994h175.946v-175.948H64.138v175.948z" fill="currentColor" />
    <path d="M104.61 551.988c-4.42 0-8.076-3.578-8.076-7.998s3.498-7.998 7.904-7.998h0.172c4.406 0 7.998 3.578 7.998 7.998s-3.594 7.998-7.998 7.998zM200.096 551.988h-63.98c-4.42 0-7.998-3.578-7.998-7.998s3.576-7.998 7.998-7.998h63.98c4.42 0 7.998 3.578 7.998 7.998s-3.578 7.998-7.998 7.998zM104.61 599.972c-4.42 0-8.076-3.576-8.076-7.996 0-4.422 3.498-7.998 7.904-7.998h0.172a8.002 8.002 0 0 1 7.998 7.998 8.004 8.004 0 0 1-7.998 7.996zM200.096 599.972h-63.98a7.992 7.992 0 0 1-7.998-7.996 7.992 7.992 0 0 1 7.998-7.998h63.98a7.994 7.994 0 0 1 7.998 7.998 7.994 7.994 0 0 1-7.998 7.996zM104.61 647.958c-4.42 0-8.076-3.578-8.076-7.998s3.498-7.998 7.904-7.998h0.172c4.406 0 7.998 3.578 7.998 7.998s-3.594 7.998-7.998 7.998zM200.096 647.958h-63.98c-4.42 0-7.998-3.578-7.998-7.998s3.576-7.998 7.998-7.998h63.98c4.42 0 7.998 3.578 7.998 7.998s-3.578 7.998-7.998 7.998zM1015.848 264.076H8.156c-4.42 0-7.998-3.578-7.998-7.998s3.578-7.998 7.998-7.998h1007.692c4.418 0 7.996 3.578 7.996 7.998s-3.578 7.998-7.996 7.998zM248.082 232.086H56.14c-4.42 0-7.998-3.578-7.998-7.998s3.578-7.998 7.998-7.998h191.942c4.42 0 7.998 3.578 7.998 7.998s-3.58 7.998-7.998 7.998zM967.86 440.022H296.066a7.994 7.994 0 0 1-7.998-7.998v-127.958a7.992 7.992 0 0 1 7.998-7.998H967.86c4.422 0 8 3.576 8 7.998v127.958a7.994 7.994 0 0 1-8 7.998z m-663.796-15.994h655.8V312.06h-655.8v111.968zM903.878 232.086H360.046c-4.42 0-7.998-3.578-7.998-7.998s3.576-7.998 7.998-7.998h543.832c4.422 0 8 3.578 8 7.998s-3.578 7.998-8 7.998zM352.034 559.984c-13.964 0-31.974-18.446-31.974-38.036 0-19.354 13.746-33.942 31.974-33.942 18.244 0 32.006 14.588 32.006 33.942 0 19.592-18.026 38.036-32.006 38.036z m0-55.982c-9.404 0-15.98 7.374-15.98 17.948 0 12.122 12.058 22.042 15.98 22.042 3.92 0 16.01-9.92 16.01-22.042 0-10.574-6.576-17.948-16.01-17.948z" fill="currentColor" />
    <path d="M397.722 577.356c-0.546 0-1.108-0.062-1.67-0.172-34.334-7.232-36.004-11.058-36.004-17.2a7.992 7.992 0 0 1 7.998-7.996c2.422 0 4.578 1.062 6.044 2.764 3.782 1.672 15.59 4.732 25.274 6.78a8.008 8.008 0 0 1 6.17 9.482 8.004 8.004 0 0 1-7.812 6.342z" fill="currentColor" />
    <path d="M368.044 567.982a7.994 7.994 0 0 1-7.998-7.998v-17.854a7.994 7.994 0 0 1 7.998-7.998 7.994 7.994 0 0 1 7.998 7.998v17.854a7.994 7.994 0 0 1-7.998 7.998zM306.376 577.356a8 8 0 0 1-7.81-6.342 8.008 8.008 0 0 1 6.17-9.482c9.684-2.046 21.494-5.108 25.274-6.78a7.992 7.992 0 0 1 14.042 5.232c0 6.14-1.672 9.966-36.004 17.2a8.92 8.92 0 0 1-1.672 0.172z" fill="currentColor" />
    <path d="M336.054 567.982a7.994 7.994 0 0 1-7.998-7.998v-17.854a7.994 7.994 0 0 1 7.998-7.998 7.994 7.994 0 0 1 7.998 7.998v17.854a7.994 7.994 0 0 1-7.998 7.998z" fill="currentColor" />
    <path d="M408.032 599.972h-111.966a7.992 7.992 0 0 1-7.998-7.996v-111.966a7.994 7.994 0 0 1 7.998-7.998h111.966a7.994 7.994 0 0 1 7.998 7.998v111.966a7.992 7.992 0 0 1-7.998 7.996z m-103.968-15.994h95.97v-95.97h-95.97v95.97z" fill="currentColor" />
    <path d="M967.86 504.002H456.016a7.994 7.994 0 0 1-7.998-7.998 7.992 7.992 0 0 1 7.998-7.996H967.86c4.422 0 8 3.576 8 7.996a7.994 7.994 0 0 1-8 7.998z" fill="" />
    <path d="M967.86 535.992H456.016a7.992 7.992 0 0 1-7.998-7.996 7.994 7.994 0 0 1 7.998-7.998H967.86c4.422 0 8 3.576 8 7.998a7.994 7.994 0 0 1-8 7.996z" fill="currentColor" />
    <path d="M711.938 567.982h-255.92a7.994 7.994 0 0 1-7.998-7.998 7.992 7.992 0 0 1 7.998-7.996h255.92c4.422 0 8 3.576 8 7.996a7.994 7.994 0 0 1-8 7.998z" fill="currentColor" />
    <path d="M352.034 719.938c-13.964 0-31.974-18.45-31.974-38.036 0-19.356 13.746-33.944 31.974-33.944 18.244 0 32.006 14.588 32.006 33.944 0 19.586-18.026 38.036-32.006 38.036z m0-55.984c-9.404 0-15.98 7.374-15.98 17.95 0 12.122 12.058 22.04 15.98 22.04 3.92 0 16.01-9.918 16.01-22.04 0-10.578-6.576-17.95-16.01-17.95z" fill="currentColor" />
    <path d="M397.722 737.306c-0.546 0-1.108-0.062-1.67-0.172-34.334-7.232-36.004-11.06-36.004-17.198a7.994 7.994 0 0 1 7.998-7.998c2.422 0 4.578 1.06 6.044 2.764 3.782 1.672 15.59 4.734 25.274 6.78a8.006 8.006 0 0 1 6.17 9.482 8.004 8.004 0 0 1-7.812 6.342z" fill="currentColor" />
    <path d="M368.044 727.934a7.992 7.992 0 0 1-7.998-7.996v-17.856a7.992 7.992 0 0 1 7.998-7.996 7.992 7.992 0 0 1 7.998 7.996v17.856a7.992 7.992 0 0 1-7.998 7.996zM306.376 737.306a8 8 0 0 1-7.81-6.342 8.008 8.008 0 0 1 6.17-9.482c9.684-2.044 21.494-5.108 25.274-6.78a7.956 7.956 0 0 1 6.044-2.764 7.994 7.994 0 0 1 7.998 7.998c0 6.136-1.672 9.964-36.004 17.198a8.756 8.756 0 0 1-1.672 0.172z" fill="currentColor" />
    <path d="M336.054 727.934a7.992 7.992 0 0 1-7.998-7.996v-17.856a7.992 7.992 0 0 1 7.998-7.996 7.992 7.992 0 0 1 7.998 7.996v17.856a7.992 7.992 0 0 1-7.998 7.996z" fill="" />
    <path d="M408.032 759.924h-111.966a7.994 7.994 0 0 1-7.998-7.998V639.96a7.994 7.994 0 0 1 7.998-7.998h111.966a7.994 7.994 0 0 1 7.998 7.998v111.964c0 4.424-3.578 8-7.998 8z m-103.968-15.994h95.97V647.96h-95.97v95.97z" fill="currentColor" />
    <path d="M967.86 663.954H456.016a7.992 7.992 0 0 1-7.998-7.996 7.994 7.994 0 0 1 7.998-7.998H967.86c4.422 0 8 3.576 8 7.998a7.994 7.994 0 0 1-8 7.996z" fill="currentColor" />
    <path d="M711.938 695.944h-255.92a7.994 7.994 0 0 1-7.998-7.998 7.992 7.992 0 0 1 7.998-7.996h255.92c4.422 0 8 3.576 8 7.996a7.994 7.994 0 0 1-8 7.998z" fill="currentColor" />
    <path d="M919.876 360.046H344.052c-4.42 0-7.998-3.578-7.998-7.998s3.578-7.998 7.998-7.998h575.824c4.422 0 7.996 3.578 7.996 7.998s-3.576 7.998-7.996 7.998z" fill="currentColor" />
    <path d="M663.954 392.038H344.052c-4.42 0-7.998-3.578-7.998-7.998s3.578-7.998 7.998-7.998h319.902c4.422 0 8 3.578 8 7.998s-3.578 7.998-8 7.998z" fill="currentColor" />
    <path d="M519.996 839.898h-63.98a7.992 7.992 0 0 1-7.998-7.996v-63.98a7.994 7.994 0 0 1 7.998-7.998h63.98c4.422 0 8 3.576 8 7.998v63.98a7.994 7.994 0 0 1-8 7.996z m-55.982-15.994H512v-47.986h-47.986v47.986z" fill="currentColor" />
    <path d="M967.86 791.914H567.984c-4.422 0-8-3.576-8-7.998a7.994 7.994 0 0 1 8-7.998H967.86c4.422 0 8 3.578 8 7.998a7.994 7.994 0 0 1-8 7.998z" fill="currentColor" />
    <path d="M775.918 823.904H567.984c-4.422 0-8-3.576-8-7.998a7.994 7.994 0 0 1 8-7.996h207.934c4.422 0 8 3.576 8 7.996a7.994 7.994 0 0 1-8 7.998z" fill="currentColor" />
    <path d="M456.5 599.972c-4.42 0-8.076-3.576-8.076-7.996 0-4.422 3.5-7.998 7.904-7.998h0.172a8.002 8.002 0 0 1 7.998 7.998 8 8 0 0 1-7.998 7.996zM535.992 599.972h-46.642a7.992 7.992 0 0 1-7.998-7.996 7.994 7.994 0 0 1 7.998-7.998h46.642c4.422 0 8 3.576 8 7.998a7.994 7.994 0 0 1-8 7.996z" fill="currentColor" />
    <path d="M456.5 727.934c-4.42 0-8.076-3.576-8.076-7.996 0-4.422 3.5-7.998 7.904-7.998h0.172a8.002 8.002 0 0 1 7.998 7.998 8 8 0 0 1-7.998 7.996zM535.992 727.934h-46.642a7.992 7.992 0 0 1-7.998-7.996 7.994 7.994 0 0 1 7.998-7.998h46.642c4.422 0 8 3.576 8 7.998a7.994 7.994 0 0 1-8 7.996z" fill="currentColor" />
  </g>
  <g id="burgerMenu">
    <path d="M5 12H20" stroke="currentColor" stroke-width="2" stroke-linecap="round"/>
    <path d="M5 17H20" stroke="currentColor" stroke-width="2" stroke-linecap="round"/>
    <path d="M5 7H20" stroke="currentColor" stroke-width="2" stroke-linecap="round"/>
  </g>
  <g id="addPhoto" fill="none">
    <path d="M21 11V18C21 19.1046 20.1046 20 19 20H5C3.89543 20 3 19.1046 3 18V9C3 7.89543 3.89543 7 5 7H6.5C7.12951 7 7.72229 6.70361 8.1 6.2L9.15 4.8C9.52771 4.29639 10.1205 4 10.75 4H13.25" stroke="currentColor" stroke-width="1" stroke-linecap="round" stroke-linejoin="round"/>
    <path d="M18.5 4V6.5M18.5 9V6.5M18.5 6.5H16M18.5 6.5H21" stroke="currentColor" stroke-width="1" stroke-linecap="round" stroke-linejoin="round"/>
    <circle cx="12" cy="13" r="4" stroke="currentColor" stroke-width="1" stroke-linecap="round" stroke-linejoin="round"/>
  </g>
  <g id="readed" fill="currentColor">
    <path d="M17.5821 6.95711C17.9726 6.56658 17.9726 5.93342 17.5821 5.54289C17.1916 5.15237 16.5584 5.15237 16.1679 5.54289L5.54545 16.1653L1.70711 12.327C1.31658 11.9365 0.683417 11.9365 0.292893 12.327C-0.0976311 12.7175 -0.097631 13.3507 0.292893 13.7412L4.83835 18.2866C5.22887 18.6772 5.86204 18.6772 6.25256 18.2866L17.5821 6.95711Z" />
    <path d="M23.5821 6.95711C23.9726 6.56658 23.9726 5.93342 23.5821 5.54289C23.1915 5.15237 22.5584 5.15237 22.1678 5.54289L10.8383 16.8724C10.4478 17.263 10.4478 17.8961 10.8383 18.2866C11.2288 18.6772 11.862 18.6772 12.2525 18.2866L23.5821 6.95711Z" />
  </g>
  <g id="trash" fill="transparent" stroke="currentColor">
    <path d="M18 6L17.1991 18.0129C17.129 19.065 17.0939 19.5911 16.8667 19.99C16.6666 20.3412 16.3648 20.6235 16.0011 20.7998C15.588 21 15.0607 21 14.0062 21H9.99377C8.93927 21 8.41202 21 7.99889 20.7998C7.63517 20.6235 7.33339 20.3412 7.13332 19.99C6.90607 19.5911 6.871 19.065 6.80086 18.0129L6 6M4 6H20M16 6L15.7294 5.18807C15.4671 4.40125 15.3359 4.00784 15.0927 3.71698C14.8779 3.46013 14.6021 3.26132 14.2905 3.13878C13.9376 3 13.523 3 12.6936 3H11.3064C10.477 3 10.0624 3 9.70951 3.13878C9.39792 3.26132 9.12208 3.46013 8.90729 3.71698C8.66405 4.00784 8.53292 4.40125 8.27064 5.18807L8 6M14 10V17M10 10V17" stroke-width="1" stroke-linecap="round" stroke-linejoin="round"/>
  </g>
  <g id="restore" fill="transparent" stroke="currentColor">
    <path d="M11 15L9 13M9 13L11 11M9 13H13C14.1046 13 15 13.8954 15 15V16M16 6L15.7294 5.18807C15.4671 4.40125 15.3359 4.00784 15.0927 3.71698C14.8779 3.46013 14.6021 3.26132 14.2905 3.13878C13.9376 3 13.523 3 12.6936 3H11.3064C10.477 3 10.0624 3 9.70951 3.13878C9.39792 3.26132 9.12208 3.46013 8.90729 3.71698C8.66405 4.00784 8.53292 4.40125 8.27064 5.18807L8 6M4 6H20M18 6V16.2C18 17.8802 18 18.7202 17.673 19.362C17.3854 19.9265 16.9265 20.3854 16.362 20.673C15.7202 21 14.8802 21 13.2 21H10.8C9.11984 21 8.27976 21 7.63803 20.673C7.07354 20.3854 6.6146 19.9265 6.32698 19.362C6 18.7202 6 17.8802 6 16.2V6" stroke-width="1" stroke-linecap="round" stroke-linejoin="round"/>
  </g>
  <g id="spam" fill="transparent" stroke="currentColor">
    <path d="M15.936 2.5L21.5 8.067v7.87L15.936 21.5h-7.87L2.5 15.936v-7.87L8.066 2.5h7.87zm-.829 2H8.894L4.501 8.895v6.213l4.393 4.394h6.213l4.394-4.394V8.894l-4.394-4.393zM11 15h2v2h-2v-2zm0-8h2v6h-2V7z"/>
  </g>
</svg>