<?xml version="1.0" encoding="utf-8"?>
<!-- Uploaded to: SVG Repo, www.svgrepo.com, Generator: SVG Repo Mixer Tools -->
<svg width="800px" height="800px" viewBox="0 0 1024 1024" fill="#A303A0" class="icon"  version="1.1" xmlns="http://www.w3.org/2000/svg"><path d="M296.55 232.086c-4.42 0-8.076-3.578-8.076-7.998s3.498-7.998 7.904-7.998h0.172c4.406 0 7.998 3.578 7.998 7.998s-3.592 7.998-7.998 7.998zM328.54 232.086c-4.42 0-8.074-3.578-8.074-7.998s3.498-7.998 7.904-7.998h0.17c4.406 0 7.998 3.578 7.998 7.998s-3.592 7.998-7.998 7.998zM936.356 232.086c-4.422 0-8.078-3.578-8.078-7.998s3.5-7.998 7.906-7.998h0.172c4.402 0 7.996 3.578 7.996 7.998s-3.594 7.998-7.996 7.998zM968.344 232.086c-4.418 0-8.074-3.578-8.074-7.998s3.5-7.998 7.902-7.998h0.172c4.406 0 8 3.578 8 7.998s-3.594 7.998-8 7.998zM248.082 504.002H56.14a7.994 7.994 0 0 1-7.998-7.998v-191.94a7.994 7.994 0 0 1 7.998-7.998h191.942a7.994 7.994 0 0 1 7.998 7.998v191.94a7.994 7.994 0 0 1-7.998 7.998z m-183.944-15.994h175.946V312.06H64.138v175.948zM40.628 184.1c-4.42 0-8.076-3.576-8.076-7.996 0-4.422 3.498-7.998 7.904-7.998h0.172a8.002 8.002 0 0 1 7.998 7.998 8 8 0 0 1-7.998 7.996zM72.62 184.1c-4.42 0-8.076-3.576-8.076-7.996 0-4.422 3.498-7.998 7.904-7.998h0.172a8.002 8.002 0 0 1 7.998 7.998 8.004 8.004 0 0 1-7.998 7.996zM104.61 184.1c-4.42 0-8.076-3.576-8.076-7.996 0-4.422 3.498-7.998 7.904-7.998h0.172a8.002 8.002 0 0 1 7.998 7.998 8.004 8.004 0 0 1-7.998 7.996z" fill="" /><path d="M1015.848 200.096H8.156a7.994 7.994 0 0 1-7.998-7.998v-15.994c0-13.23 10.762-23.994 23.992-23.994h975.702c13.23 0 23.992 10.764 23.992 23.994v15.994a7.994 7.994 0 0 1-7.996 7.998zM16.152 184.1h991.696v-7.996c0-4.344-3.656-7.998-7.996-7.998H24.15a8.014 8.014 0 0 0-7.998 7.998v7.996z" fill="" /><path d="M1015.848 871.89H8.156a7.994 7.994 0 0 1-7.998-7.998V192.098a7.994 7.994 0 0 1 7.998-7.998h1007.692a7.994 7.994 0 0 1 7.996 7.998v671.794a7.994 7.994 0 0 1-7.996 7.998zM16.152 855.894h991.696V200.096H16.152v655.798z" fill="" /><path d="M152.094 456.018c-23.914 0-55.966-33.646-55.966-68.058 0-34.144 24.054-59.902 55.966-59.902 31.928 0 55.998 25.758 55.998 59.902 0 34.412-32.068 68.058-55.998 68.058z m0-111.968c-23.164 0-39.972 18.462-39.972 43.908 0 27.43 27.148 52.062 39.972 52.062 13.168 0 40.004-24.102 40.004-52.062 0-25.444-16.822-43.908-40.004-43.908z" fill="" /><path d="M248.096 472.012a6.96 6.96 0 0 1-1.376-0.124c-70.62-12.23-70.62-17.12-70.62-23.868a7.994 7.994 0 0 1 14.136-5.122c6.608 2.998 35.13 9.058 59.202 13.246a7.972 7.972 0 0 1 6.514 9.23 7.99 7.99 0 0 1-7.856 6.638z" fill="" /><path d="M184.1 456.018a7.994 7.994 0 0 1-7.998-7.998v-19.65c0-4.42 3.578-7.998 7.998-7.998s7.998 3.578 7.998 7.998v19.65a7.994 7.994 0 0 1-7.998 7.998zM56.124 472.012a7.992 7.992 0 0 1-7.856-6.638 7.972 7.972 0 0 1 6.512-9.23c24.072-4.188 52.594-10.264 59.202-13.246a7.998 7.998 0 0 1 14.136 5.122c0 6.748 0 11.636-70.62 23.868-0.452 0.092-0.92 0.124-1.374 0.124z" fill="" /><path d="M120.12 456.018a7.994 7.994 0 0 1-7.998-7.998v-19.65a7.994 7.994 0 0 1 7.998-7.998 7.994 7.994 0 0 1 7.998 7.998v19.65a7.994 7.994 0 0 1-7.998 7.998zM248.082 695.944H56.14a7.994 7.994 0 0 1-7.998-7.998v-191.942a7.992 7.992 0 0 1 7.998-7.996h191.942a7.992 7.992 0 0 1 7.998 7.996v191.942a7.994 7.994 0 0 1-7.998 7.998z m-183.944-15.994h175.946v-175.948H64.138v175.948z" fill="" /><path d="M104.61 551.988c-4.42 0-8.076-3.578-8.076-7.998s3.498-7.998 7.904-7.998h0.172c4.406 0 7.998 3.578 7.998 7.998s-3.594 7.998-7.998 7.998zM200.096 551.988h-63.98c-4.42 0-7.998-3.578-7.998-7.998s3.576-7.998 7.998-7.998h63.98c4.42 0 7.998 3.578 7.998 7.998s-3.578 7.998-7.998 7.998zM104.61 599.972c-4.42 0-8.076-3.576-8.076-7.996 0-4.422 3.498-7.998 7.904-7.998h0.172a8.002 8.002 0 0 1 7.998 7.998 8.004 8.004 0 0 1-7.998 7.996zM200.096 599.972h-63.98a7.992 7.992 0 0 1-7.998-7.996 7.992 7.992 0 0 1 7.998-7.998h63.98a7.994 7.994 0 0 1 7.998 7.998 7.994 7.994 0 0 1-7.998 7.996zM104.61 647.958c-4.42 0-8.076-3.578-8.076-7.998s3.498-7.998 7.904-7.998h0.172c4.406 0 7.998 3.578 7.998 7.998s-3.594 7.998-7.998 7.998zM200.096 647.958h-63.98c-4.42 0-7.998-3.578-7.998-7.998s3.576-7.998 7.998-7.998h63.98c4.42 0 7.998 3.578 7.998 7.998s-3.578 7.998-7.998 7.998zM1015.848 264.076H8.156c-4.42 0-7.998-3.578-7.998-7.998s3.578-7.998 7.998-7.998h1007.692c4.418 0 7.996 3.578 7.996 7.998s-3.578 7.998-7.996 7.998zM248.082 232.086H56.14c-4.42 0-7.998-3.578-7.998-7.998s3.578-7.998 7.998-7.998h191.942c4.42 0 7.998 3.578 7.998 7.998s-3.58 7.998-7.998 7.998zM967.86 440.022H296.066a7.994 7.994 0 0 1-7.998-7.998v-127.958a7.992 7.992 0 0 1 7.998-7.998H967.86c4.422 0 8 3.576 8 7.998v127.958a7.994 7.994 0 0 1-8 7.998z m-663.796-15.994h655.8V312.06h-655.8v111.968zM903.878 232.086H360.046c-4.42 0-7.998-3.578-7.998-7.998s3.576-7.998 7.998-7.998h543.832c4.422 0 8 3.578 8 7.998s-3.578 7.998-8 7.998zM352.034 559.984c-13.964 0-31.974-18.446-31.974-38.036 0-19.354 13.746-33.942 31.974-33.942 18.244 0 32.006 14.588 32.006 33.942 0 19.592-18.026 38.036-32.006 38.036z m0-55.982c-9.404 0-15.98 7.374-15.98 17.948 0 12.122 12.058 22.042 15.98 22.042 3.92 0 16.01-9.92 16.01-22.042 0-10.574-6.576-17.948-16.01-17.948z" fill="" /><path d="M397.722 577.356c-0.546 0-1.108-0.062-1.67-0.172-34.334-7.232-36.004-11.058-36.004-17.2a7.992 7.992 0 0 1 7.998-7.996c2.422 0 4.578 1.062 6.044 2.764 3.782 1.672 15.59 4.732 25.274 6.78a8.008 8.008 0 0 1 6.17 9.482 8.004 8.004 0 0 1-7.812 6.342z" fill="" /><path d="M368.044 567.982a7.994 7.994 0 0 1-7.998-7.998v-17.854a7.994 7.994 0 0 1 7.998-7.998 7.994 7.994 0 0 1 7.998 7.998v17.854a7.994 7.994 0 0 1-7.998 7.998zM306.376 577.356a8 8 0 0 1-7.81-6.342 8.008 8.008 0 0 1 6.17-9.482c9.684-2.046 21.494-5.108 25.274-6.78a7.992 7.992 0 0 1 14.042 5.232c0 6.14-1.672 9.966-36.004 17.2a8.92 8.92 0 0 1-1.672 0.172z" fill="" /><path d="M336.054 567.982a7.994 7.994 0 0 1-7.998-7.998v-17.854a7.994 7.994 0 0 1 7.998-7.998 7.994 7.994 0 0 1 7.998 7.998v17.854a7.994 7.994 0 0 1-7.998 7.998z" fill="" /><path d="M408.032 599.972h-111.966a7.992 7.992 0 0 1-7.998-7.996v-111.966a7.994 7.994 0 0 1 7.998-7.998h111.966a7.994 7.994 0 0 1 7.998 7.998v111.966a7.992 7.992 0 0 1-7.998 7.996z m-103.968-15.994h95.97v-95.97h-95.97v95.97z" fill="" /><path d="M967.86 504.002H456.016a7.994 7.994 0 0 1-7.998-7.998 7.992 7.992 0 0 1 7.998-7.996H967.86c4.422 0 8 3.576 8 7.996a7.994 7.994 0 0 1-8 7.998z" fill="" /><path d="M967.86 535.992H456.016a7.992 7.992 0 0 1-7.998-7.996 7.994 7.994 0 0 1 7.998-7.998H967.86c4.422 0 8 3.576 8 7.998a7.994 7.994 0 0 1-8 7.996z" fill="" /><path d="M711.938 567.982h-255.92a7.994 7.994 0 0 1-7.998-7.998 7.992 7.992 0 0 1 7.998-7.996h255.92c4.422 0 8 3.576 8 7.996a7.994 7.994 0 0 1-8 7.998z" fill="" /><path d="M352.034 719.938c-13.964 0-31.974-18.45-31.974-38.036 0-19.356 13.746-33.944 31.974-33.944 18.244 0 32.006 14.588 32.006 33.944 0 19.586-18.026 38.036-32.006 38.036z m0-55.984c-9.404 0-15.98 7.374-15.98 17.95 0 12.122 12.058 22.04 15.98 22.04 3.92 0 16.01-9.918 16.01-22.04 0-10.578-6.576-17.95-16.01-17.95z" fill="" /><path d="M397.722 737.306c-0.546 0-1.108-0.062-1.67-0.172-34.334-7.232-36.004-11.06-36.004-17.198a7.994 7.994 0 0 1 7.998-7.998c2.422 0 4.578 1.06 6.044 2.764 3.782 1.672 15.59 4.734 25.274 6.78a8.006 8.006 0 0 1 6.17 9.482 8.004 8.004 0 0 1-7.812 6.342z" fill="" /><path d="M368.044 727.934a7.992 7.992 0 0 1-7.998-7.996v-17.856a7.992 7.992 0 0 1 7.998-7.996 7.992 7.992 0 0 1 7.998 7.996v17.856a7.992 7.992 0 0 1-7.998 7.996zM306.376 737.306a8 8 0 0 1-7.81-6.342 8.008 8.008 0 0 1 6.17-9.482c9.684-2.044 21.494-5.108 25.274-6.78a7.956 7.956 0 0 1 6.044-2.764 7.994 7.994 0 0 1 7.998 7.998c0 6.136-1.672 9.964-36.004 17.198a8.756 8.756 0 0 1-1.672 0.172z" fill="" /><path d="M336.054 727.934a7.992 7.992 0 0 1-7.998-7.996v-17.856a7.992 7.992 0 0 1 7.998-7.996 7.992 7.992 0 0 1 7.998 7.996v17.856a7.992 7.992 0 0 1-7.998 7.996z" fill="" /><path d="M408.032 759.924h-111.966a7.994 7.994 0 0 1-7.998-7.998V639.96a7.994 7.994 0 0 1 7.998-7.998h111.966a7.994 7.994 0 0 1 7.998 7.998v111.964c0 4.424-3.578 8-7.998 8z m-103.968-15.994h95.97V647.96h-95.97v95.97z" fill="" /><path d="M967.86 663.954H456.016a7.992 7.992 0 0 1-7.998-7.996 7.994 7.994 0 0 1 7.998-7.998H967.86c4.422 0 8 3.576 8 7.998a7.994 7.994 0 0 1-8 7.996z" fill="" /><path d="M711.938 695.944h-255.92a7.994 7.994 0 0 1-7.998-7.998 7.992 7.992 0 0 1 7.998-7.996h255.92c4.422 0 8 3.576 8 7.996a7.994 7.994 0 0 1-8 7.998z" fill="" /><path d="M919.876 360.046H344.052c-4.42 0-7.998-3.578-7.998-7.998s3.578-7.998 7.998-7.998h575.824c4.422 0 7.996 3.578 7.996 7.998s-3.576 7.998-7.996 7.998z" fill="" /><path d="M663.954 392.038H344.052c-4.42 0-7.998-3.578-7.998-7.998s3.578-7.998 7.998-7.998h319.902c4.422 0 8 3.578 8 7.998s-3.578 7.998-8 7.998z" fill="" /><path d="M519.996 839.898h-63.98a7.992 7.992 0 0 1-7.998-7.996v-63.98a7.994 7.994 0 0 1 7.998-7.998h63.98c4.422 0 8 3.576 8 7.998v63.98a7.994 7.994 0 0 1-8 7.996z m-55.982-15.994H512v-47.986h-47.986v47.986z" fill="" /><path d="M967.86 791.914H567.984c-4.422 0-8-3.576-8-7.998a7.994 7.994 0 0 1 8-7.998H967.86c4.422 0 8 3.578 8 7.998a7.994 7.994 0 0 1-8 7.998z" fill="" /><path d="M775.918 823.904H567.984c-4.422 0-8-3.576-8-7.998a7.994 7.994 0 0 1 8-7.996h207.934c4.422 0 8 3.576 8 7.996a7.994 7.994 0 0 1-8 7.998z" fill="" /><path d="M456.5 599.972c-4.42 0-8.076-3.576-8.076-7.996 0-4.422 3.5-7.998 7.904-7.998h0.172a8.002 8.002 0 0 1 7.998 7.998 8 8 0 0 1-7.998 7.996zM535.992 599.972h-46.642a7.992 7.992 0 0 1-7.998-7.996 7.994 7.994 0 0 1 7.998-7.998h46.642c4.422 0 8 3.576 8 7.998a7.994 7.994 0 0 1-8 7.996z" fill="" /><path d="M456.5 727.934c-4.42 0-8.076-3.576-8.076-7.996 0-4.422 3.5-7.998 7.904-7.998h0.172a8.002 8.002 0 0 1 7.998 7.998 8 8 0 0 1-7.998 7.996zM535.992 727.934h-46.642a7.992 7.992 0 0 1-7.998-7.996 7.994 7.994 0 0 1 7.998-7.998h46.642c4.422 0 8 3.576 8 7.998a7.994 7.994 0 0 1-8 7.996z" fill="" /></svg>