<svg width="14" height="14" viewBox="0 0 14 14" fill="none" xmlns="http://www.w3.org/2000/svg">
    <g id="search">  
        <path id="Search_2" fill-rule="evenodd" clip-rule="evenodd" d="M1.16663 6.22411C1.16663 3.43096 3.40682 1.16666 6.17025 1.16666C7.49729 1.16666 8.76998 1.69949 9.70834 2.64795C10.6467 3.59641 11.1739 4.88279 11.1739 6.22411C11.1739 9.01727 8.93367 11.2816 6.17025 11.2816C3.40682 11.2816 1.16663 9.01727 1.16663 6.22411ZM11.0911 10.2983L12.5813 11.5012H12.6072C12.9087 11.806 12.9087 12.3 12.6072 12.6048C12.3057 12.9095 11.8169 12.9095 11.5154 12.6048L10.2787 11.1874C10.1618 11.0697 10.0961 10.9097 10.0961 10.7429C10.0961 10.576 10.1618 10.4161 10.2787 10.2983C10.5042 10.0744 10.8656 10.0744 11.0911 10.2983Z" fill="#490057"/>
    </g>
</svg>
